<svg enable-background="new 0 0 600 173.2" viewBox="0 0 600 173.2" xmlns="http://www.w3.org/2000/svg"><path d="m27.2 25.6c-.4 0-.8 1-.8 2.2v78.3c0 14.6 1 19 10.8 19 .8 0 1.8-.2 3.2-.2 3.2 0 4.7.8 4.7 2.8 0 2.2-2.2 3.4-6.5 3.4-4.7 0-10.4-.8-16.9-.8-5.9 0-11.2.8-15.6.8-4.1 0-6.1-1.2-6.1-3.4 0-2 1.4-2.8 4.5-2.8h2.2c10.2 0 11-5.4 11-21.4v-83.1c0-6.6-.6-8.4-5.9-9.4-6.7-1.2-10.4.2-10.4-3.4 0-1.8 1.2-2.8 3.5-2.8h32.3c1.2 0 2.2.2 3.5 2l65.8 87.1c.2.2.4.2.6.2.4 0 .8-1 .8-2.2v-62.7c0-6 0-10.4-.8-13.6-1-4.2-5.5-5-13.6-5-2.6 0-4.3-1.2-4.3-2.8 0-1.8 2-3 6.3-3 4.9 0 10.6.6 16.9.6 6.5 0 11.6-.8 15.2-.8 3.5 0 5.5 1.4 5.5 3.2 0 2-1 2.6-3.2 2.6h-3c-9.1 0-9.9 5.8-9.9 20.2v100.7c0 2.6-1.8 5-3.9 5-1.4 0-2.8-1-4.3-3.2l-81-107.3c-.2-.2-.4-.2-.6-.2" fill="#1f77b5"/><path d="m157.4 148.4c-11.8 13.4-23.2 20.2-33.5 20.2-8.7 0-14.2-5-14.2-13 0-6 4.9-10.8 11.2-10.8 2.8 0 5.7 1.4 8.3 4.6 2.8 3.2 4.3 7.8 8.9 7.8 8.1 0 13.4-12.6 13.4-37v-99.7c0-7-.8-8.4-6.5-9.4-6.5-1.2-10.4.2-10.4-3.4 0-1.6 1.4-2.8 3.7-2.8 2.4 0 10.2 1.6 24.2 1.6s22.1-1.6 24.4-1.6c2.4 0 3.7 1.2 3.7 2.8 0 3.6-3.9 2.2-10.4 3.4-5.7 1-6.5 2.4-6.5 9.4v84.7c0 17.2-4.9 30.4-16.3 43.2" fill="#1f77b5"/><path d="m216.6 30.9c-.8 0-1.2 1.2-1.4 3.8l-3.9 61.2c-.6 5.6-.6 9.4-.6 11.2 0 12.8 2 17.8 11 17.8 1 0 2-.2 3.2-.2 3.2 0 4.7 1 4.7 3s-2.2 3.2-6.5 3.2c-4.1 0-9.7-.6-16.7-.6-6.3 0-11.4.6-15.4.6s-5.9-1-5.9-3.2c0-1.8 1.2-3 3.7-3 2.2 0 3.5.2 4.3.2 8.9 0 9.1-8.6 10.8-32l3.9-68.4v-4c0-6.6-.8-8.4-6.1-9.4-6.3-1.2-10 .2-10-3.4 0-1.8 1.2-2.6 3.4-2.6h32.3c1.8 0 3 .2 3.5 1.8l32.5 80.9c.6 1.6 1.4 2.4 2 2.4.8 0 1.4-.6 2-2.2l32.3-79.5c1-2.2 1.4-3.4 3.9-3.4h31.9c2.4 0 3.5.8 3.5 2.6 0 4.4-5.9 2-12 4-3.4 1.2-4.3 2.6-4.3 8.2 0 1.4.2 2.8.2 4.6l2.4 87.7c.6 8.2.8 10.6 8.3 12.2 4.9 1 9.3-.4 9.3 3.4 0 2-1.8 3.2-5.1 3.2-4.7 0-12.2-1.2-22.5-1.2-11 0-18.7 1.2-23.4 1.2-3.4 0-5.1-1.2-5.1-3.2 0-1.8 1.4-3 3.7-3 11.4 0 13.2-2.2 13.2-12.2v-5l-2-74.1c0-1.4-.6-2.2-1.2-2.2s-.8.8-1.4 2l-36 90.7c-.8 1.8-2.4 3-3.9 3-2.2 0-3.5-1-4.1-2.4l-36.6-91.1c-.7-1.6-1.3-2.6-1.9-2.6" fill="#1f77b5"/><g fill="#231f20"><path d="m367.9 55.6c1.5.5 3 .3 3 1.6 0 .5-.5.9-1.5.9-.6 0-2.7-.2-6.2-.2-3 0-5.3.2-6.7.2-1.5 0-2.2-.2-2.2-1.1s1.2-.7 2.3-1.1c2.2-.7 2.3-2 2.3-4.3v-36.6c0-1.8-.1-2.9-1.3-3.3-1.3-.5-3.1-.1-3.1-1.5 0-.6.5-.9 1.6-.9.5 0 2.7.2 6.6.2 2.3 0 4.5-.2 6.5-.2 1.4 0 2 .3 2 .9 0 .8-.9.9-2.3 1.2-2.3.3-2.3 1-2.3 3.4v37.3c-.1 2 0 3.1 1.3 3.5"/><path d="m375.9 29.9c0-1.6-.2-2-1.3-2.2s-1.9 0-1.9-.6c0-.9 1.3-1.3 3.7-2.6 3-1.6 4.1-2.9 4.6-2.9.4 0 .6.3.6.9v2.9c0 .5.1.9.1 1.1s.2.5.4.5c.4 0 1.1-.9 2.5-1.9 2.6-2 4.9-3.2 7.9-3.2 7 0 9.5 4.2 9.5 12.6v17.3c0 2.5 0 3.5 1.5 4.2 1.1.5 2.7-.1 2.7 1.2 0 .8-.9.9-3 .9-1.1 0-2.5-.1-4.2-.1-1.2 0-2.2.1-2.8.1-.5 0-1.5-.1-2.7-.1-.9 0-1.2-.2-1.2-.7 0-1.2 1.3-.8 2.1-1.3 1.2-.7 1.2-1.9 1.2-4v-18.8c0-5.4-1.6-8-5.9-8-5 0-7.2 2.9-7.2 9.1v18.7c0 2 .4 2.9 1.6 3.2 1.1.2 2-.1 2 .9 0 .7-.4.9-1.2.9-.3 0-2.1-.1-5.3-.1-3.4 0-5.2.1-5.6.1-1.1 0-1.6-.3-1.6-1 0-.9.7-.9 2-1.2 1-.3 1.5-1.6 1.5-3.6z"/><path d="m426.7 28.7c0 1.9-.1 2.4-1.1 2.4-1.3 0-1.4-1.4-2.2-3.3-1.3-2.9-2.9-4.3-5.5-4.3-3.4 0-5.8 2.3-5.8 5.2 0 1 .2 1.9.8 2.7 1.8 2.7 6 4 10.2 6.9 3.5 2.4 5.3 5.5 5.3 9.4 0 6.7-5.2 11.3-13.1 11.3-6.6 0-8.2-1-8.2-4.1v-5.1c0-1.9 0-2.7 1.1-2.7.9 0 1.4.6 2 1.9 2 4.8 3 8.1 7.3 8.1 3.3 0 5.6-2.4 5.6-6.4 0-2.6-.9-4.6-2.8-6.3-2.3-2.1-6.4-3.5-10.2-6.4-1.9-1.5-3-3.7-3-6.2 0-5.7 4.9-10 12.2-10 5.1 0 7.4.7 7.4 2.3v3.6z"/><path d="m433.7 28.8c0-2.5 0-3.6-1.5-4.3-1.1-.5-2.7.2-2.7-1.1 0-.9.8-1.1 2.8-1.1.7 0 1.6.2 2.5.2.5 0 1.6-.1 3.5-.1 1.2 0 1.9.5 1.9 1.7v23.5c0 5.4 1.5 8 5.8 8 5 0 7.2-2.9 7.2-9.1v-19c0-2-.4-2.9-1.6-3.2-1.1-.2-2 .1-2-.8 0-.7.3-1.1 1.1-1.1.5 0 1.2.2 2.1.2 1.5 0 3-.2 4.7-.2 1.8 0 2.2.5 2.2 2v26.3c0 1.6.2 2 1.3 2.2s2 .1 2 .7c0 .8-1.4 1.3-3.8 2.6-3 1.6-4.1 2.9-4.6 2.9-.4 0-.5-.3-.5-.9v-3.8c0-.2-.3-.4-.5-.4-.4 0-1.1.9-2.5 1.9-2.6 2-4.9 3.1-7.9 3.1-7 0-9.5-4.1-9.5-12.5z"/><path d="m467.8 29.9c0-1.6-.2-2-1.2-2.2-1.1-.2-2 0-2-.6 0-.9 1.4-1.3 3.8-2.6 3-1.6 4.1-2.9 4.6-2.9.4 0 .5.3.5.9v5.5c0 .2.3.4.5.4.6 0 1.2-1.2 2.5-2.8 1.9-2.3 3.8-3.5 5.9-3.5 2.8 0 4.5 1.8 4.5 5 0 2.9-1.4 4.5-3.4 4.5s-2.8-.8-3.2-2.7c-.2-1-.2-2-1.1-2-2.7 0-4.9 4.2-4.9 11.5v14.7c0 2 .4 2.9 1.6 3.2 1.1.2 2-.1 2 .9 0 .7-.3.9-1.1.9-.3 0-2.1-.1-5.3-.1-3.4 0-5.2.1-5.6.1-1.1 0-1.6-.3-1.6-1 0-.9.8-.9 2.1-1.2 1-.3 1.5-1.6 1.5-3.6v-22.4z"/><path d="m502.9 29.1c0-3.8-.5-5.5-3-5.5s-5 2.1-5.8 5.6c-.8 3.6-1 6.4-4.7 6.4-1.4 0-2-.8-2-2.6 0-2 1.2-4.3 3.7-6.7 3-2.9 6.8-4.5 10.9-4.5 6.6 0 7.7 2.2 7.7 7.9v18.6c0 3.8.2 5.4 2.2 5.4 2.1 0 2.1-2.5 3-2.5.5 0 .7.4.7 1.1 0 2.8-3 6.3-6.6 6.3-2 0-3.6-.8-4.1-2-1.1-2.2-1.4-3.4-2.1-3.4-.9 0-1.6 1.3-3.2 2.9-1.9 1.9-3.8 2.9-6 2.9-3.5 0-5.9-2.5-5.9-6.4 0-6 4.8-9.6 12.9-15.5 2.4-1.8 2.4-2.6 2.4-5.5v-2.5zm-.8 9.2c-1 0-2.2 1.4-4.4 3.7-2.4 2.5-3.7 5.3-3.7 7.4 0 2.6 1.6 4.3 3.8 4.3 3.3 0 5.4-3.5 5.4-10.1v-2c0-2.2-.2-3.3-1.1-3.3"/><path d="m517.6 29.9c0-1.6-.2-2-1.2-2.2-1.1-.2-1.9 0-1.9-.6 0-.9 1.3-1.3 3.7-2.6 3-1.6 4.1-2.9 4.6-2.9.4 0 .5.3.5.9v2.9c0 .5.1.9.1 1.1s.2.5.4.5c.4 0 1.1-.9 2.5-1.9 2.6-2 4.9-3.2 7.9-3.2 7 0 9.5 4.2 9.5 12.6v17.3c0 2.5 0 3.5 1.5 4.2 1.1.5 2.7-.1 2.7 1.2 0 .8-.9.9-3 .9-1.1 0-2.5-.1-4.2-.1-1.3 0-2.2.1-2.8.1s-1.5-.1-2.7-.1c-.9 0-1.2-.2-1.2-.7 0-1.2 1.3-.8 2.1-1.3 1.2-.7 1.3-1.9 1.3-4v-18.8c0-5.4-1.6-8-5.9-8-5 0-7.2 2.9-7.2 9.1v18.7c0 2 .4 2.9 1.6 3.2 1.1.2 2-.1 2 .9 0 .7-.4.9-1.2.9-.3 0-2.1-.1-5.3-.1-3.4 0-5.2.1-5.6.1-1.1 0-1.6-.3-1.6-1 0-.9.7-.9 2-1.2 1-.3 1.5-1.6 1.5-3.6v-22.3z"/><path d="m571.5 29.9c0 2.2-.1 2.9-1.5 2.9s-2.4-1-3.3-3.1c-1.5-3.4-2.1-5.6-4.6-5.6-3 0-6.4 5.6-6.4 13.6 0 10.5 4.6 17 9.2 17 1.8 0 3.4-.9 4.8-2.6 1.2-1.5 1.3-3.2 2.3-3.2.5 0 .8.4.8 1.2s-.5 2.3-1.6 4c-2.3 3.4-5.2 5-8.8 5-7.4 0-13.9-7.9-13.9-18.6 0-10.8 6.7-18.5 15.2-18.5 3.7 0 6.4.9 7.3 1.6.5.4.5 1.4.5 2.9v2.7z"/><path d="m583.7 38.1c-2.2 0-2.6.2-2.6 2.6 0 9.1 3.8 14.6 9.3 14.6 2.5 0 4.6-1 6.3-2.9 1.3-1.5 1.3-3.3 2.4-3.3.5 0 .8.4.8 1 0 3.5-4.9 9.1-12 9.1-7.8 0-13.9-7.4-13.9-17.9 0-11.7 6.2-19.5 14.6-19.5 6.6 0 11 4.9 11 13.3 0 2.8-.2 3-3.1 3h-3.1zm.3-11.4c-1.7 2.8-2.6 6.1-2.6 7.8 0 1.5.9 1.9 3.2 1.9 7.4 0 9.2-.6 9.2-5 0-5-2.1-8.1-4.9-8.1-2 .1-3.5 1.2-4.9 3.4"/><path d="m385.6 123.1c-1.8 2.6-6.6 5-11.6 5-5.5 0-9.9-2.3-13.7-7.1s-5.9-11.1-5.9-18.4c0-15.2 8.4-25.2 20.1-25.2 5.5 0 9.4 1.5 10.2 2.5.3.3.5 1.3.6 2.9l.2 5.8c0 1.2.1 1.9.1 1.9 0 .8-.4 1.2-1.3 1.2-1.8 0-2.2-1.9-3.3-4.9-1.8-5-3.5-7.2-7.3-7.2-6.7 0-11.1 7.4-11.1 20.8 0 16.7 4.8 25.6 11.6 25.6 3.6 0 4.9-2 4.9-6.6v-10.4c0-1.8-.1-2.9-1.3-3.3-1.7-.4-3.3-.2-3.3-1.3 0-.8.9-.9 2.8-.9 1.1 0 3 .2 5.9.2 3.4 0 5.2-.2 5.6-.2.9 0 1.4.4 1.4 1 0 1.1-.9 1-2 1.2-1.6.3-1.9 1.2-1.9 3.4v10.6c0 1.4-.2 2.6-.7 3.4"/><path d="m394 98.8c0-1.6-.2-2-1.2-2.2-1.1-.2-2 0-2-.6 0-.9 1.4-1.3 3.8-2.6 3-1.6 4.1-2.9 4.6-2.9.4 0 .5.3.5.9v5.4c0 .2.3.4.5.4.6 0 1.2-1.2 2.5-2.8 1.9-2.3 3.8-3.5 5.9-3.5 2.8 0 4.5 1.8 4.5 5 0 2.9-1.4 4.5-3.4 4.5s-2.8-.8-3.2-2.7c-.2-1-.2-2-1.1-2-2.7 0-4.8 4.2-4.8 11.5v14.8c0 2 .4 2.9 1.6 3.2 1.1.2 2-.1 2 .9 0 .7-.3.9-1.1.9-.3 0-2.1-.1-5.3-.1-3.4 0-5.2.1-5.6.1-1.1 0-1.6-.3-1.6-1 0-.9.8-.9 2.1-1.2 1-.3 1.5-1.6 1.5-3.6v-22.4z"/><path d="m426.7 90.6c7.7 0 14.3 7.4 14.3 18.6 0 5.3-1.5 9.9-4.5 13.5-2.8 3.4-6.4 5.3-9.6 5.3-3 0-6.6-1.6-9.5-4.6-3.4-3.6-5-8.1-5-14.2.1-10.8 6.9-18.6 14.3-18.6m7.3 18.8c0-10.8-3.3-17-7.3-17-4.1 0-7 6-7 16.5s3.2 16.7 7.2 16.7c4-.1 7.1-6 7.1-16.2"/><path d="m445.3 97.7c0-2.5 0-3.6-1.5-4.3-1.1-.5-2.7.2-2.7-1.1 0-.9.8-1.1 2.8-1.1.7 0 1.6.2 2.5.2.5 0 1.6-.1 3.5-.1 1.2 0 1.9.5 1.9 1.7v23.5c0 5.4 1.5 8 5.8 8 5 0 7.2-2.9 7.2-9.1v-19c0-2-.4-2.9-1.6-3.2-1.1-.2-2 .1-2-.8 0-.7.3-1.1 1.1-1.1.6 0 1.3.2 2.1.2 1.5 0 3-.2 4.7-.2 1.8 0 2.2.5 2.2 2v26.3c0 1.6.2 2 1.3 2.2s2 .1 2 .7c0 .8-1.4 1.3-3.8 2.6-3 1.6-4.1 2.9-4.6 2.9-.4 0-.6-.3-.6-.9v-3.8c0-.2-.3-.4-.5-.4-.4 0-1.1.9-2.5 1.9-2.6 2-4.9 3.1-7.9 3.1-7 0-9.5-4.1-9.5-12.5v-17.7z"/><path d="m487.5 142c2.3.3 3.4 0 3.4.9 0 .7-.4 1-1.2 1-.5 0-3-.2-7.3-.2-3.8 0-5.9.1-6.3.1-1.1 0-1.6-.3-1.6-1 0-.6.5-.9 1.5-.9h.5c1.9 0 2.6-1.2 2.6-3.8v-38.7c0-1.6-.2-2.1-1.2-2.2-1.6-.2-2.7.2-2.7-1.2 0-.8 1.4-.8 3.6-1.8 3.5-1.6 4.9-3.4 5.6-3.4.4 0 .5.3.5.9v2.5c0 .9 0 1.6.5 1.6.3 0 1-.7 2.5-1.9 2-1.7 3.7-3 6.3-3 6.2 0 11.9 7 11.9 17.8 0 11.4-6.6 19.1-13.6 19.1-2.4 0-4.6-.7-7-2.2v12.2c-.2 3-.1 3.9 2 4.2m-2.1-27.8c0 7.7 1.4 11.5 5.5 11.5 4.5 0 7.7-5.3 7.7-15.5 0-10.1-3.1-15.3-7.9-15.3-4.1 0-5.3 2.9-5.3 8.7z"/></g></svg>